HIERARCHY
ROOT Hips
{
 OFFSET 0.000000 0.000000 0.000000
 CHANNELS 6 Xposition Yposition Zposition Yrotation Xrotation Zrotation
 JOINT Chest
 {
  OFFSET 0.000000 9.588913 -0.003946
  CHANNELS 3 Yrotation Xrotation Zrotation
  JOINT Chest2
  {
   OFFSET 0.000000 9.541882 0.008053
   CHANNELS 3 Yrotation Xrotation Zrotation
   JOINT Chest3
   {
    OFFSET 0.000000 9.501360 0.000000
    CHANNELS 3 Yrotation Xrotation Zrotation
    JOINT Chest4
    {
     OFFSET 0.000000 9.491660 0.000000
     CHANNELS 3 Yrotation Xrotation Zrotation
     JOINT Neck
     {
      OFFSET 0.000000 14.331917 0.000000
      CHANNELS 3 Yrotation Xrotation Zrotation
      JOINT Head
      {
       OFFSET 0.000000 8.884799 0.017034
       CHANNELS 3 Yrotation Xrotation Zrotation
       End Site
       {
        OFFSET 0.000000 16.896195 0.008993
       }
      }
     }
     JOINT RightCollar
     {
      OFFSET -2.923010 9.499495 0.000000
      CHANNELS 3 Yrotation Xrotation Zrotation
      JOINT RightShoulder
      {
       OFFSET -13.795216 0.000000 0.000000
       CHANNELS 3 Yrotation Xrotation Zrotation
       JOINT RightElbow
       {
        OFFSET -30.272209 0.000000 0.000000
        CHANNELS 3 Yrotation Xrotation Zrotation
        JOINT RightWrist
        {
         OFFSET -24.478199 0.000000 0.000000
         CHANNELS 3 Yrotation Xrotation Zrotation
         End Site
         {
          OFFSET -18.090752 0.000000 0.000000
         }
        }
       }
      }
     }
     JOINT LeftCollar
     {
      OFFSET 2.923010 9.499495 0.000000
      CHANNELS 3 Yrotation Xrotation Zrotation
      JOINT LeftShoulder
      {
       OFFSET 13.795216 0.000000 0.000000
       CHANNELS 3 Yrotation Xrotation Zrotation
       JOINT LeftElbow
       {
        OFFSET 30.272209 0.000000 0.000000
        CHANNELS 3 Yrotation Xrotation Zrotation
        JOINT LeftWrist
        {
         OFFSET 24.478199 0.000000 0.000000
         CHANNELS 3 Yrotation Xrotation Zrotation
         End Site
         {
          OFFSET 18.090752 0.000000 0.000000
         }
        }
       }
      }
     }
    }
   }
  }
 }
 JOINT RightHip
 {
  OFFSET -7.826875 0.019532 0.001973
  CHANNELS 3 Yrotation Xrotation Zrotation
  JOINT RightKnee
  {
   OFFSET 0.000000 -40.546152 -0.001885
   CHANNELS 3 Yrotation Xrotation Zrotation
   JOINT RightAnkle
   {
    OFFSET 0.000000 -39.417092 -0.003189
    CHANNELS 3 Yrotation Xrotation Zrotation
    JOINT RightToe
    {
     OFFSET 0.000000 -7.579396 17.243563
     CHANNELS 3 Yrotation Xrotation Zrotation
     End Site
     {
      OFFSET 0.000000 -1.500329 6.694466
     }
    }
   }
  }
 }
 JOINT LeftHip
 {
  OFFSET 7.826875 0.019532 0.001973
  CHANNELS 3 Yrotation Xrotation Zrotation
  JOINT LeftKnee
  {
   OFFSET 0.000000 -40.546152 -0.001885
   CHANNELS 3 Yrotation Xrotation Zrotation
   JOINT LeftAnkle
   {
    OFFSET 0.000000 -39.417092 -0.003189
    CHANNELS 3 Yrotation Xrotation Zrotation
    JOINT LeftToe
    {
     OFFSET 0.000000 -7.579396 17.243563
     CHANNELS 3 Yrotation Xrotation Zrotation
     End Site
     {
      OFFSET 0.000000 -1.500329 6.694466
     }
    }
   }
  }
 }
}
MOTION
Frames: 12
Frame Time: 0.008333
21.945296 37.944212 -24.449177 45.639165 5.619567 5.562890 1.808593 19.420463 7.222757 0.177850 11.157368 3.714617 0.339692 13.943067 4.671368 0.177854 11.157417 3.714624 -2.554235 9.528491 -13.286710 0.400639 -15.522744 -14.820852 13.321241 -3.829860 -18.392777 23.993231 -38.181522 35.151737 29.755129 -8.616295 11.385036 7.316691 -10.561714 -4.717938 -19.275321 -4.509324 5.543664 -11.175412 -47.618538 -51.784162 -41.778286 -11.619818 -42.605709 -12.049287 -9.822329 13.006601 113.266580 -77.207778 -133.119614 159.097206 39.400629 174.978112 8.967070 -32.384994 -4.734502 1.232631 -13.486440 -13.838798 124.021640 -78.466432 -110.118500 176.179668 37.262582 -175.150996 -3.774144 -31.615702 -3.131525 -0.764272 -21.402970 3.556184
21.905430 37.929353 -24.418399 45.742022 5.569048 5.409983 1.888721 19.432364 7.171287 0.231391 11.159480 3.668941 0.405528 13.945233 4.615680 0.231396 11.159530 3.668948 -2.526921 9.495678 -13.247513 0.423168 -15.560640 -14.780603 13.169914 -3.761832 -18.317092 23.532814 -37.983793 35.288680 30.770556 -8.816771 12.173689 7.083573 -10.666737 -4.566781 -19.246185 -4.490477 5.567545 -10.701550 -47.488180 -51.735283 -42.175478 -12.100769 -43.015534 -11.680715 -9.834806 12.817755 113.328143 -77.396163 -133.229093 159.106216 39.412115 174.995503 8.949815 -32.337594 -4.693553 1.241501 -13.537457 -13.895624 124.459816 -78.610228 -110.691049 176.153511 37.223046 -175.103188 -3.738287 -31.674992 -3.194219 -0.755768 -21.335337 3.522083
21.864574 37.912740 -24.385413 45.851997 5.512447 5.248053 1.965821 19.447890 7.118104 0.283256 11.162279 3.621970 0.469227 13.948289 4.558317 0.283261 11.162331 3.621978 -2.498568 9.465435 -13.201797 0.445171 -15.595828 -14.732044 13.017305 -3.696333 -18.227154 23.030740 -37.785272 35.426646 31.889504 -9.040360 13.039151 6.801357 -10.759383 -4.362856 -19.210780 -4.458881 5.592057 -10.170487 -47.390987 -51.723870 -42.595502 -12.556854 -43.420436 -11.366468 -9.842795 12.680600 113.364041 -77.597499 -133.323480 159.113809 39.420678 175.014841 8.936827 -32.292758 -4.653084 1.253994 -13.590201 -13.959113 124.928615 -78.762022 -111.301356 176.126444 37.179527 -175.050867 -3.699975 -31.737778 -3.262429 -0.750334 -21.263618 3.489150
21.822010 37.894088 -24.350831 45.969986 5.454356 5.077200 2.030858 19.464159 7.062413 0.332089 11.165935 3.572420 0.529045 13.952462 4.497624 0.332093 11.165987 3.572428 -2.464012 9.437915 -13.150610 0.472910 -15.628007 -14.677839 12.872129 -3.635396 -18.123851 22.499397 -37.591869 35.558381 33.082884 -9.285821 13.973339 6.466963 -10.841003 -4.115811 -19.157099 -4.415713 5.619637 -9.602728 -47.317138 -51.750088 -43.035510 -13.007318 -43.795707 -11.086980 -9.833307 12.594417 113.380283 -77.809098 -133.410943 159.115093 39.427114 175.033360 8.933197 -32.254205 -4.617608 1.272354 -13.638724 -14.029576 125.473531 -78.923871 -111.993981 176.086497 37.134542 -175.003861 -3.676928 -31.801000 -3.341454 -0.744705 -21.187562 3.462471
21.777137 37.873079 -24.315173 46.094531 5.398707 4.897356 2.081209 19.480385 7.005807 0.376783 11.170679 3.520355 0.583598 13.958052 4.433648 0.376787 11.170730 3.520363 -2.419367 9.412298 -13.095801 0.511386 -15.657964 -14.621444 12.742816 -3.579374 -18.019928 21.949496 -37.401660 35.681242 34.330978 -9.555867 14.960591 6.105015 -10.911724 -3.855129 -19.082873 -4.367171 5.647719 -9.015249 -47.252667 -51.808392 -43.489159 -13.475687 -44.128292 -10.818867 -9.806897 12.544842 113.396031 -78.028608 -133.510691 159.110737 39.432190 175.051368 8.944057 -32.221151 -4.589044 1.298116 -13.680481 -14.108132 126.117942 -79.093988 -112.789759 176.022546 37.089946 -174.968135 -3.680044 -31.866854 -3.440218 -0.737085 -21.104576 3.449861
21.730394 37.849418 -24.279033 46.222375 5.345719 4.712480 2.123461 19.495089 6.947217 0.418570 11.176239 3.467710 0.634491 13.964702 4.368858 0.418574 11.176289 3.467718 -2.367070 9.389670 -13.037983 0.557891 -15.684495 -14.562935 12.623299 -3.521464 -17.929095 21.395116 -37.209614 35.799267 35.621613 -9.852805 15.971509 5.762177 -10.960829 -3.631998 -19.002766 -4.311994 5.672799 -8.410643 -47.193790 -51.889499 -43.950684 -13.965455 -44.421526 -10.550968 -9.780856 12.512472 113.422043 -78.250791 -133.627122 159.103302 39.434990 175.072967 8.952032 -32.193101 -4.551865 1.323785 -13.721158 -14.196623 126.844364 -79.265741 -113.668571 175.936034 37.045088 -174.941989 -3.704527 -31.936821 -3.560794 -0.728891 -21.014629 3.453923
21.682534 37.822846 -24.242841 46.350489 5.294153 4.526420 2.164756 19.508339 6.885733 0.459172 11.182148 3.415398 0.683907 13.971810 4.304452 0.459175 11.182198 3.415407 -2.310048 9.371026 -12.975255 0.608495 -15.706595 -14.499047 12.498162 -3.462497 -17.849750 20.866913 -37.009964 35.902045 36.943959 -10.162288 16.977953 5.485653 -10.974274 -3.498304 -18.929898 -4.246927 5.696060 -7.785721 -47.147679 -51.984763 -44.408855 -14.468665 -44.680218 -10.290344 -9.768726 12.468526 113.464058 -78.472977 -133.763155 159.091963 39.434342 175.097264 8.948724 -32.168704 -4.502470 1.344348 -13.763732 -14.293990 127.634854 -79.432916 -114.612856 175.841400 36.997045 -174.918865 -3.730020 -32.007663 -3.696795 -0.721125 -20.921547 3.466813
21.634287 37.793133 -24.206491 46.476716 5.241302 4.340051 2.207139 19.525225 6.821188 0.498340 11.188879 3.361797 0.731491 13.979974 4.238387 0.498344 11.188931 3.361806 -2.247586 9.354384 -12.904386 0.663228 -15.726586 -14.426038 12.361045 -3.414230 -17.770615 20.395773 -36.795730 35.968357 38.296890 -10.455146 17.964998 5.300587 -10.949810 -3.489881 -18.861554 -4.175853 5.719235 -7.148505 -47.114115 -52.081155 -44.856645 -14.987686 -44.898272 -10.033029 -9.762044 12.395507 113.511874 -78.696893 -133.912521 159.076374 39.429759 175.122176 8.948422 -32.145676 -4.457543 1.363490 -13.805371 -14.395817 128.478444 -79.593681 -115.615874 175.746943 36.942813 -174.895072 -3.741659 -32.074114 -3.839670 -0.712694 -20.831010 3.476402
21.585988 37.760137 -24.169512 46.600541 5.185330 4.150885 2.247695 19.548333 6.753670 0.535134 11.196861 3.305386 0.776016 13.989740 4.168725 0.535138 11.196915 3.305396 -2.177604 9.338467 -12.824053 0.724179 -15.745910 -14.342906 12.222766 -3.380769 -17.690193 19.979028 -36.563959 35.995610 39.687645 -10.706492 18.920279 5.209155 -10.899661 -3.622404 -18.788666 -4.104298 5.741012 -6.513118 -47.086157 -52.171154 -45.297542 -15.520394 -45.059610 -9.764555 -9.748319 12.296031 113.556897 -78.926314 -134.071663 159.055825 39.421557 175.143048 8.977498 -32.120701 -4.444399 1.390656 -13.839211 -14.494472 129.380251 -79.749159 -116.685985 175.648488 36.881151 -174.874380 -3.737327 -32.131798 -3.982460 -0.705305 -20.746942 3.474235
21.537568 37.723927 -24.132014 46.719439 5.129445 3.957273 2.285608 19.572619 6.680661 0.569257 11.205285 3.246278 0.817106 14.000100 4.095595 0.569261 11.205340 3.246288 -2.098889 9.324752 -12.735111 0.792913 -15.762851 -14.250958 12.098783 -3.354314 -17.615079 19.597009 -36.319726 35.996001 41.115046 -10.910244 19.831203 5.204198 -10.832270 -3.888727 -18.707184 -4.035266 5.759859 -5.874124 -47.059807 -52.270050 -45.744740 -16.044523 -45.155537 -9.487340 -9.730516 12.193967 113.606937 -79.160058 -134.243585 159.026729 39.411389 175.158143 9.033567 -32.096430 -4.462346 1.425099 -13.862439 -14.588326 130.361519 -79.897492 -117.843029 175.544083 36.811634 -174.860552 -3.712092 -32.178428 -4.124479 -0.703955 -20.671259 3.458293
21.489730 37.684673 -24.094164 46.826166 5.074448 3.761101 2.327361 19.596975 6.597935 0.601642 11.213157 3.185464 0.855950 14.009799 4.020263 0.601646 11.213213 3.185472 -2.014221 9.314450 -12.638135 0.866298 -15.776071 -14.150145 11.995079 -3.331188 -17.547058 19.241325 -36.071712 35.979061 42.570753 -11.076640 20.696112 5.275872 -10.752660 -4.276434 -18.616632 -3.971749 5.775745 -5.223760 -47.036347 -52.395077 -46.204479 -16.539475 -45.185263 -9.219821 -9.707045 12.113155 113.648703 -79.393788 -134.399232 158.990835 39.400249 175.178024 9.076547 -32.083804 -4.470795 1.450843 -13.882896 -14.685783 131.409457 -80.040289 -119.069414 175.438693 36.733278 -174.848920 -3.665904 -32.217419 -4.269929 -0.706729 -20.605533 3.431639
21.443305 37.642492 -24.054976 46.920046 5.015405 3.561004 2.377068 19.626740 6.508968 0.634097 11.220578 3.124238 0.894864 14.018944 3.944416 0.634101 11.220634 3.124247 -1.930507 9.306445 -12.531666 0.935955 -15.786983 -14.036973 11.905612 -3.316078 -17.484260 18.910574 -35.830591 35.950900 44.047437 -11.225141 21.524109 5.414549 -10.668959 -4.774869 -18.519934 -3.919581 5.787679 -4.572526 -47.019974 -52.545968 -46.670449 -16.999405 -45.150648 -8.980136 -9.669723 12.067042 113.660215 -79.631765 -134.513478 158.953796 39.387215 175.205577 9.103969 -32.084974 -4.465193 1.468442 -13.902408 -14.787082 132.485837 -80.186310 -120.326323 175.336656 36.646052 -174.833587 -3.603379 -32.258226 -4.418042 -0.710082 -20.546681 3.395183
